<svg viewBox="0 0 289 330" xmlns="http://www.w3.org/2000/svg" fill-rule="evenodd" clip-rule="evenodd" stroke-linecap="round" stroke-linejoin="round" stroke-miterlimit="1.5">
  <g transform="scale(2.88164 3.29005)">
    <path fill="none" d="M0 0h100v100H0z"/>
    <clipPath id="a">
      <path d="M0 0h100v100H0z"/>
    </clipPath>
    <g clip-path="url(#a)">
      <path d="M31.728.02H99.68L67.365 35.803l26.992 7.791-51.892 56.364h-22.39L37.811 68.11.049 57.542 31.728.02z" fill="#fff"/>
      <path d="M34.022 35.713a50.506 50.506 0 0 1 9.166-1.293l2.052-9.41-11.218 10.703zM50.53 46.459c.17.43.262.893.262 1.374 0 2.319-2.149 4.201-4.796 4.201-2.648 0-4.797-1.882-4.797-4.201 0-2.32 2.149-4.202 4.797-4.202.583 0 1.142.092 1.66.26-.683.314-1.15.94-1.15 1.663 0 1.037.961 1.878 2.145 1.878.808 0 1.514-.393 1.879-.973m8.702-5.48c1.36 2.008 2.14 4.352 2.14 6.854 0 2.54-.805 4.918-2.203 6.946 4.371-1.49 7.994-3.793 10.047-6.91h.002-.001l.001-.002h-.002c-2.043-3.101-5.64-5.397-9.984-6.888m-26.405-.1c-4.475 1.489-8.188 3.818-10.277 6.988h-.002v.003h.002c2.1 3.185 5.838 5.522 10.341 7.008-1.44-2.05-2.272-4.463-2.272-7.045 0-2.544.807-4.923 2.208-6.953m13.169-1.884c5.568 0 10.089 3.96 10.089 8.837s-4.52 8.837-10.09 8.837c-5.568 0-10.089-3.96-10.089-8.837 0-4.878 4.52-8.837 10.09-8.837m11.897 20.992a50.385 50.385 0 0 1-9.17 1.32l-2.045 9.379 11.215-10.699zM15.4 47.671c1.412-2.395 20.257-20.4 37.533-35.7.038-.034-3.278 17.563-4.202 22.457 11.729.623 22.974 5.102 27.75 13.439h.002v.003h-.001l-.029.05.18-.052s-.154.24-.683.874c-1.269 1.956-19.332 19.37-36.962 34.983-.039.035 3.257-17.45 4.192-22.409-11.78-.594-23.098-5.076-27.894-13.446h-.002l.001-.002v-.001h.001l.026-.045-.024.007s.03-.048.112-.158" fill="#3a3232"/>
    </g>
  </g>
</svg>
