<svg viewBox="0 0 200 100" xmlns="http://www.w3.org/2000/svg" fill-rule="evenodd" clip-rule="evenodd" stroke-linejoin="round" stroke-miterlimit="1.414">
  <path d="M162.675 10.14c0-5.491-4.458-9.95-9.95-9.95H43.06c-5.491 0-9.95 4.459-9.95 9.95 0 5.492 4.459 9.95 9.95 9.95h109.665c5.492 0 9.95-4.458 9.95-9.95zM162.675 89.778c0-5.492-4.458-9.95-9.95-9.95H43.06c-5.491 0-9.95 4.458-9.95 9.95 0 5.491 4.459 9.949 9.95 9.949h109.665c5.492 0 9.95-4.458 9.95-9.949zM143.326 49.958c0-5.492-4.458-9.95-9.95-9.95H62.763c-5.491 0-9.95 4.458-9.95 9.95 0 5.491 4.459 9.949 9.95 9.949h70.613c5.492 0 9.95-4.458 9.95-9.95z" fill="#312424"/>
</svg>
